HIERARCHY
ROOT Hips
{
	OFFSET 0.00000 0.00000 0.00000
	CHANNELS 6 Xposition Yposition Zposition Zrotation Yrotation Xrotation 
	JOINT LHipJoint
	{
		OFFSET 0 0 0
		CHANNELS 3 Zrotation Yrotation Xrotation
		JOINT LeftHip
		{
			OFFSET 1.37590 -1.78394 0.89329
			CHANNELS 3 Zrotation Yrotation Xrotation
			JOINT LeftKnee
			{
				OFFSET 2.47928 -6.81178 0.00000
				CHANNELS 3 Zrotation Yrotation Xrotation
				JOINT LeftAnkle
				{
					OFFSET 2.63345 -7.23535 0.00000
					CHANNELS 3 Zrotation Yrotation Xrotation
					JOINT LeftToe
					{
						OFFSET 0.23938 -0.65768 2.27012
						CHANNELS 3 Zrotation Yrotation Xrotation
						End Site
						{
							OFFSET 0.00000 -0.00000 1.18363
						}
					}
				}
			}
		}
	}
	JOINT RHipJoint
	{
		OFFSET 0 0 0
		CHANNELS 3 Zrotation Yrotation Xrotation
		JOINT RightHip
		{
			OFFSET -1.33617 -1.78394 0.89329
			CHANNELS 3 Zrotation Yrotation Xrotation
			JOINT RightKnee
			{
				OFFSET -2.56922 -7.05888 0.00000
				CHANNELS 3 Zrotation Yrotation Xrotation
				JOINT RightAnkle
				{
					OFFSET -2.56568 -7.04915 0.00000
					CHANNELS 3 Zrotation Yrotation Xrotation
					JOINT RightToe
					{
						OFFSET -0.27533 -0.75646 2.18105
						CHANNELS 3 Zrotation Yrotation Xrotation
						End Site
						{
							OFFSET -0.00000 -0.00000 1.15233
						}
					}
				}
			}
		}
	}
	JOINT lowerback
	{
		OFFSET 0 0 0
		CHANNELS 3 Zrotation Yrotation Xrotation
		JOINT Chest
		{
			OFFSET 0.06190 2.15152 -0.00935
			CHANNELS 3 Zrotation Yrotation Xrotation
			JOINT Chest2
			{
				OFFSET 0.06334 2.15332 0.00872
				CHANNELS 3 Zrotation Yrotation Xrotation
				JOINT lowerneck
				{
					OFFSET 0 0 0
					CHANNELS 3 Zrotation Yrotation Xrotation
					JOINT Neck
					{
						OFFSET -0.04202 1.66908 0.23524
						CHANNELS 3 Zrotation Yrotation Xrotation
						JOINT Head
						{
							OFFSET 0.07510 1.69357 -0.24440
							CHANNELS 3 Zrotation Yrotation Xrotation
							End Site
							{
								OFFSET 0.02556 1.71719 -0.11000
							}
						}
					}
				}
				JOINT LeftCollar
				{
					OFFSET 0 0 0
					CHANNELS 3 Zrotation Yrotation Xrotation
					JOINT LeftShoulder
					{
						OFFSET 3.67168 1.26306 -0.41342
CHANNELS 3 Zrotation Xrotation Yrotation
						JOINT LeftElbow
						{
OFFSET 0 -4.685100 -0.000000
CHANNELS 3 Zrotation Xrotation Yrotation
							JOINT LeftWrist
							{
OFFSET 0 -3.396260 -0.000000
CHANNELS 3 Zrotation Xrotation Yrotation
								JOINT lhand
								{
									OFFSET 0 0 0
CHANNELS 3 Zrotation Xrotation Yrotation
									JOINT LFingers
									{
OFFSET 0 -0.486080 -0.000000
CHANNELS 3 Zrotation Xrotation Yrotation
										End Site
										{
OFFSET 0 -0.391890 -0.000000
										}
									}
								}
								JOINT LThumb
								{
OFFSET 0 0.000000 0.000000
CHANNELS 3 Zrotation Xrotation Yrotation
									End Site
									{
OFFSET 0 -0.397870 0.397870
									}
								}
							}
						}
					}
				}
				JOINT RightCollar
				{
					OFFSET 0 0 0
					CHANNELS 3 Zrotation Yrotation Xrotation
					JOINT RightShoulder
					{
						OFFSET -3.04136 1.42992 -0.76390
CHANNELS 3 Zrotation Xrotation Yrotation
						JOINT RightElbow
						{
OFFSET 0 -5.555760 -0.000000
CHANNELS 3 Zrotation Xrotation Yrotation
							JOINT RightWrist
							{
OFFSET 0 -3.327740 -0.000000
CHANNELS 3 Zrotation Xrotation Yrotation
								JOINT rhand
								{
									OFFSET 0 0 0
CHANNELS 3 Zrotation Xrotation Yrotation
									JOINT RFingers
									{
OFFSET 0 -0.507630 -0.000000
CHANNELS 3 Zrotation Xrotation Yrotation
										End Site
										{
OFFSET 0 -0.409260 -0.000000
										}
									}
								}
								JOINT RThumb
								{
OFFSET 0 0.000000 0.000000
CHANNELS 3 Zrotation Xrotation Yrotation
									End Site
									{
OFFSET 0 -0.415510 0.415510
									}
								}
							}
						}
					}
				}
			}
		}
	}
}
MOTION
Frames: 12
Frame Time: 0.008333333333333333
42.351200 17.960400 6.747300 -105.320000 -84.717000 113.503000 0.000000 0.000000 0.000000 -14.185500 -5.008900 -8.266400 0.455800 4.331100 12.010000 0.389000 5.290800 -14.917100 0.017200 0.847100 2.328200 0.000000 0.000000 0.000000 27.292000 4.998700 -9.685800 -0.558600 -4.787400 13.303000 0.289900 -11.899500 -12.023100 -0.878800 -5.976400 16.716000 2.558700 -0.697000 -4.094100 2.561700 -1.085700 -3.685400 1.168700 -0.612600 -1.489100 -14.377000 -9.828700 -10.657500 10.070500 -12.696400 13.511500 4.236000 -6.123000 7.472100 0.000000 -0.000000 0.000000 0.418600 8.537400 -8.808100 14.809300 -23.879700 3.148300 12.305800 27.295800 -18.520300 0.000000 0.000000 0.000000 -7.125000 0.000000 0.000000 -15.310200 48.293100 1.271500 0.000000 -0.000000 0.000000 -6.034800 3.401900 16.819800 -13.402600 -21.874200 -2.601400 -13.208000 15.515900 23.125100 0.000000 0.000000 0.000000 7.125000 0.000000 -0.000000 16.399900 52.915500 -3.264100
42.359323 17.958556 6.740290 -105.834324 -84.698276 114.033699 0.000000 0.000000 0.000000 -14.199572 -5.142773 -8.312780 0.463632 4.367605 12.113160 0.399767 5.377452 -15.131473 0.013378 0.745597 2.049083 0.000000 0.000000 0.000000 27.303819 4.973736 -9.719880 -0.555734 -4.775360 13.268838 0.278589 -11.735590 -11.930890 -0.918860 -6.107015 17.095303 2.498507 -0.813423 -4.389807 2.776477 -1.257877 -3.567632 1.411241 -0.694185 -1.196298 -14.558606 -9.425102 -10.133364 10.113310 -12.150401 13.061888 4.376655 -5.883250 7.180042 0.000000 0.000000 0.000000 0.012930 8.804324 -9.113139 15.156170 -24.363068 3.290145 12.178807 26.709499 -18.424820 0.000000 0.000000 0.000000 -7.125000 0.000000 0.000000 -15.392767 48.182030 1.235656 0.000000 0.000000 0.000000 -6.451106 3.445978 17.581260 -13.471169 -21.973667 -2.626951 -13.340853 15.244505 22.940736 0.000000 0.000000 0.000000 7.125000 0.000000 0.000000 16.182131 52.760270 -3.156777
42.366652 17.956868 6.734023 -106.749963 -84.716419 114.965720 0.000000 0.000000 0.000000 -14.269090 -5.277712 -8.355979 0.472240 4.407410 12.225721 0.411260 5.420618 -15.319004 0.012963 0.734851 2.019461 0.000000 0.000000 0.000000 27.251718 4.863857 -9.789396 -0.552256 -4.760510 13.226692 0.266817 -11.565985 -11.840278 -0.885896 -5.999751 16.783660 2.550458 -0.791709 -4.161217 2.810871 -1.218092 -3.893536 1.428223 -0.683244 -1.660909 -14.482922 -9.044943 -9.400036 9.801803 -11.716613 13.236728 4.348924 -5.723874 7.028843 0.000000 0.000000 0.000000 -0.108971 9.654221 -9.591727 15.391287 -24.688259 3.387780 12.206992 26.439320 -18.491936 0.000000 0.000000 0.000000 -7.125000 0.000000 0.000000 -15.391499 48.251472 1.262362 0.000000 0.000000 0.000000 -6.576958 4.245094 17.864606 -13.557889 -22.099111 -2.659489 -13.331495 15.178498 22.825360 0.000000 0.000000 0.000000 7.125000 0.000000 0.000000 16.136908 52.646692 -3.102335
42.372643 17.955156 6.725729 -108.197439 -84.709495 116.415503 0.000000 0.000000 0.000000 -14.280528 -5.253523 -8.376655 0.474160 4.416176 12.250680 0.416387 5.224257 -15.231020 0.020427 0.921669 2.533319 0.000000 0.000000 0.000000 27.226323 4.874791 -9.817423 -0.552894 -4.763278 13.234437 0.257356 -11.414066 -11.739027 -0.898181 -6.040043 16.900635 2.605530 -0.408309 -4.319074 2.575745 -0.720014 -2.828884 1.155650 -0.410481 -0.482555 -13.376686 -9.714399 -12.815946 9.568355 -12.316388 13.673032 3.882978 -5.851358 7.751430 0.000000 0.000000 0.000000 0.463262 7.301119 -10.874434 15.240672 -24.480259 3.324969 12.218108 26.472435 -18.329283 0.000000 0.000000 0.000000 -7.125000 0.000000 0.000000 -15.321123 48.094181 1.195810 0.000000 0.000000 0.000000 -6.086218 2.224988 16.523177 -13.489579 -22.000291 -2.633878 -13.289610 15.375257 22.779509 0.000000 0.000000 0.000000 7.125000 0.000000 0.000000 16.155483 52.595044 -3.084773
42.378540 17.953312 6.718547 -109.256846 -84.714842 117.476846 0.000000 0.000000 0.000000 -14.305748 -5.267134 -8.399723 0.476225 4.425614 12.277355 0.413671 5.173904 -15.154545 0.026441 1.048233 2.881555 0.000000 0.000000 0.000000 27.192571 4.840747 -9.855930 -0.552888 -4.763276 13.234453 0.247120 -11.267323 -11.668748 -0.896736 -6.035408 16.887224 2.601334 -0.286837 -4.345014 2.554105 -0.562485 -2.506761 1.139233 -0.324540 -0.137312 -12.976244 -9.738913 -13.760962 9.385539 -12.274697 13.808451 3.729601 -5.792746 7.916302 0.000000 0.000000 0.000000 0.537416 6.782704 -11.614957 15.352142 -24.634351 3.371348 12.235914 26.290932 -18.222520 0.000000 0.000000 0.000000 -7.125000 0.000000 0.000000 -15.265367 47.992336 1.152153 0.000000 0.000000 0.000000 -6.043509 1.726065 16.271560 -13.510473 -22.030528 -2.641666 -13.311085 15.396435 22.741805 0.000000 0.000000 0.000000 7.125000 0.000000 0.000000 16.116975 52.562237 -3.063967
42.383690 17.951493 6.711558 -110.197574 -84.724440 118.414696 0.000000 0.000000 0.000000 -14.320981 -5.241326 -8.421988 0.476096 4.425141 12.275984 0.401310 5.132434 -14.956777 0.035396 1.212575 3.333911 0.000000 0.000000 0.000000 27.159207 4.809442 -9.889721 -0.553848 -4.767134 13.245615 0.237391 -11.133913 -11.618659 -0.894509 -6.028010 16.865673 2.595885 -0.193456 -4.382817 2.543278 -0.443116 -2.229606 1.134440 -0.258908 0.168375 -12.650087 -9.716147 -14.481063 9.247110 -12.193498 13.890844 3.617729 -5.723970 8.028145 0.000000 0.000000 0.000000 0.586851 6.404287 -12.301953 15.480076 -24.810635 3.424924 12.265802 26.112844 -18.100783 0.000000 0.000000 0.000000 -7.125000 0.000000 0.000000 -15.193473 47.877525 1.102602 0.000000 0.000000 0.000000 -6.017830 1.322630 16.091894 -13.536874 -22.068797 -2.651572 -13.386234 15.433494 22.734284 0.000000 0.000000 0.000000 7.125000 0.000000 0.000000 16.040201 52.568064 -3.051063
42.388071 17.949498 6.704902 -110.905013 -84.739839 119.113442 0.000000 0.000000 0.000000 -14.324219 -5.180334 -8.445048 0.474035 4.415726 12.249211 0.378509 5.119586 -14.636207 0.047304 1.403696 3.860285 0.000000 0.000000 0.000000 27.129101 4.779441 -9.916464 -0.555382 -4.773749 13.264483 0.228213 -11.017975 -11.593481 -0.892097 -6.020040 16.842578 2.589885 -0.144453 -4.448442 2.555961 -0.384524 -2.010180 1.152234 -0.225079 0.430411 -12.439573 -9.629367 -14.874727 9.177453 -12.050807 13.873652 3.568996 -5.638052 8.056000 0.000000 0.000000 0.000000 0.584951 6.205729 -12.886148 15.628147 -25.013873 3.487295 12.289048 25.931555 -17.977047 0.000000 0.000000 0.000000 -7.125000 0.000000 0.000000 -15.127302 47.759707 1.052752 0.000000 0.000000 0.000000 -6.031241 1.051300 16.038646 -13.573631 -22.121854 -2.665452 -13.502329 15.472593 22.785373 0.000000 0.000000 0.000000 7.125000 0.000000 0.000000 15.950739 52.637864 -3.060992
42.391537 17.947348 6.698667 -111.298434 -84.760625 119.494361 0.000000 0.000000 0.000000 -14.313060 -5.088812 -8.470025 0.470256 4.398231 12.199791 0.345502 5.152620 -14.198904 0.062751 1.614405 4.441232 0.000000 0.000000 0.000000 27.105860 4.748246 -9.935099 -0.557130 -4.781100 13.285192 0.220260 -10.924893 -11.588766 -0.887634 -6.005493 16.800269 2.598988 -0.143081 -4.494073 2.589713 -0.387799 -1.923915 1.181303 -0.225174 0.544714 -12.366196 -9.456956 -14.788734 9.162116 -11.828484 13.777341 3.589566 -5.533431 7.978433 0.000000 0.000000 0.000000 0.532343 6.325990 -13.350932 15.799026 -25.247268 3.559838 12.309462 25.744753 -17.879248 0.000000 0.000000 0.000000 -7.125000 0.000000 0.000000 -15.073454 47.666808 1.013613 0.000000 0.000000 0.000000 -6.079365 1.059936 16.132536 -13.628801 -22.201504 -2.686221 -13.638979 15.482677 22.849118 0.000000 0.000000 0.000000 7.125000 0.000000 0.000000 15.847159 52.723706 -3.074017
42.394327 17.945048 6.692845 -111.416781 -84.786476 119.597015 0.000000 0.000000 0.000000 -14.293130 -4.979669 -8.494246 0.465445 4.376178 12.137488 0.308540 5.209157 -13.706456 0.080843 1.833108 5.044774 0.000000 0.000000 0.000000 27.088259 4.716546 -9.946083 -0.558726 -4.787756 13.304117 0.213469 -10.851613 -11.597661 -0.882795 -5.989635 16.754382 2.616017 -0.156091 -4.505746 2.627086 -0.408699 -1.865432 1.208877 -0.234812 0.611517 -12.306277 -9.286668 -14.697085 9.147014 -11.610049 13.713600 3.611172 -5.431457 7.912267 0.000000 0.000000 0.000000 0.472265 6.480256 -13.746393 15.949982 -25.452655 3.624407 12.306912 25.576377 -17.811601 0.000000 0.000000 0.000000 -7.125000 0.000000 0.000000 -15.051744 47.600250 0.986931 0.000000 0.000000 0.000000 -6.124492 1.113218 16.230641 -13.688957 -22.288257 -2.708997 -13.750617 15.485970 22.923655 0.000000 0.000000 0.000000 7.125000 0.000000 0.000000 15.772911 52.815819 -3.095114
42.396414 17.942729 6.687329 -111.307017 -84.817788 119.468684 0.000000 0.000000 0.000000 -14.271606 -4.863607 -8.511828 0.460010 4.350863 12.065914 0.272288 5.277139 -13.213046 0.100580 2.044427 5.628383 0.000000 0.000000 0.000000 27.073520 4.689611 -9.947443 -0.559957 -4.792857 13.318823 0.208353 -10.801854 -11.615808 -0.878881 -5.976777 16.716907 2.629633 -0.180527 -4.435317 2.673525 -0.439788 -1.865773 1.247868 -0.250899 0.572126 -12.265745 -9.120338 -14.595211 9.123727 -11.398031 13.705449 3.631690 -5.334496 7.864211 0.000000 0.000000 0.000000 0.392239 6.708535 -14.069498 16.077631 -25.625758 3.679483 12.292268 25.429784 -17.772354 0.000000 0.000000 0.000000 -7.125000 0.000000 0.000000 -15.051228 47.559782 0.971562 0.000000 0.000000 0.000000 -6.175787 1.259854 16.338380 -13.756434 -22.385427 -2.734698 -13.819124 15.451652 22.980879 0.000000 0.000000 0.000000 7.125000 0.000000 0.000000 15.732694 52.883441 -3.113318
42.397851 17.940397 6.682219 -110.983963 -84.856626 119.126816 0.000000 0.000000 0.000000 -14.256666 -4.757536 -8.517712 0.454500 4.324970 11.992803 0.241387 5.346373 -12.782398 0.119496 2.227829 6.135719 0.000000 0.000000 0.000000 27.058404 4.669407 -9.939675 -0.560763 -4.796354 13.328730 0.205254 -10.779678 -11.642340 -0.875483 -5.965378 16.683960 2.635315 -0.213862 -4.288495 2.728736 -0.477748 -1.923156 1.300636 -0.271620 0.431721 -12.227723 -8.958239 -14.500985 9.065937 -11.190950 13.777498 3.639376 -5.242590 7.842578 0.000000 0.000000 0.000000 0.291260 7.011854 -14.325490 16.185349 -25.771282 3.726211 12.265011 25.298862 -17.750948 0.000000 0.000000 0.000000 -7.125000 0.000000 0.000000 -15.068803 47.535168 0.963392 0.000000 0.000000 0.000000 -6.232712 1.494701 16.439827 -13.831358 -22.493091 -2.763316 -13.805152 15.370265 23.000546 0.000000 0.000000 0.000000 7.125000 0.000000 0.000000 15.755601 52.900112 -3.124537
42.398613 17.938404 6.677694 -110.509424 -84.905101 118.634245 0.000000 0.000000 0.000000 -14.256040 -4.673088 -8.511571 0.449146 4.299637 11.921216 0.217786 5.399334 -12.441334 0.136061 2.376855 6.548386 0.000000 0.000000 0.000000 27.037768 4.657263 -9.927157 -0.561413 -4.799188 13.336828 0.203674 -10.783012 -11.683478 -0.870590 -5.948952 16.636373 2.640641 -0.254455 -4.122823 2.782631 -0.523770 -1.999763 1.352339 -0.296838 0.261212 -12.183135 -8.801793 -14.421941 8.984581 -10.991251 13.899165 3.636155 -5.155525 7.839022 0.000000 0.000000 0.000000 0.183510 7.329122 -14.515110 16.267289 -25.881674 3.761843 12.215993 25.186441 -17.736710 0.000000 0.000000 0.000000 -7.125000 0.000000 0.000000 -15.108917 47.514525 0.958273 0.000000 0.000000 0.000000 -6.283308 1.755608 16.530640 -13.906485 -22.600820 -2.792042 -13.722458 15.259456 23.022611 0.000000 0.000000 0.000000 7.125000 0.000000 0.000000 15.847130 52.906988 -3.146153
